# xmcd CD database file
#
# Track frame offsets:
#	150
#	15834
#	34433
#	47822
#	61427
#	76971
#	93089
#	106296
#	118197
#	129751
#
# Disc length: 1942 seconds
#
# Revision: 1
# Processed by: cddbd v1.5.1PL0 Copyright (c) Steve Scherf et al.
# Submitted via: CDex 1.51
#
DISCID=7507940a
DTITLE=Jenny Willén - Nu börjar det roliga
DYEAR=2003
DGENRE=Jazz
TTITLE0=Ett förslag
TTITLE1=Nu börjar det roliga
TTITLE2=Lugnande vals
TTITLE3=Tills vi ses igen
TTITLE4=Ingenting
TTITLE5=Hemlängtan
TTITLE6=Tillståndet
TTITLE7=Låt dagarna gå
TTITLE8=Sov nu
TTITLE9=En dag var hon borta
EXTD=YEAR: 2003
EXTT0=
EXTT1=
EXTT2=
EXTT3=
EXTT4=
EXTT5=
EXTT6=
EXTT7=
EXTT8=
EXTT9=
PLAYORDER=
